<svg width="412" height="394" viewBox="0 0 412 394" fill="none" xmlns="http://www.w3.org/2000/svg">
<path d="M406.782 4.86051H5.71516V389.139H406.782V4.86051Z" fill="none"/>
<path d="M77.4882 260.819C113.558 289.013 154.36 305.276 205.528 304.896C228.63 305.047 254.923 301.019 279.049 288.519C315.198 269.748 348.43 247.254 374.685 216.173C385.25 203.71 385.723 187.676 374.409 175.897C349.79 150.32 321.564 128.205 290.559 110.201C234.306 77.676 177.026 77.7897 119.55 107.389C95.6611 119.7 74.4522 135.81 53.007 151.617C39.6038 165.448 32.9808 175.365 27.5014 186.954C25.7142 190.49 25.1611 194.489 25.9246 198.353C29.0001 211.537 33.612 218.909 44.689 233.31C53.283 244.48 66.2128 252.004 77.4882 260.819ZM193.228 127.337C237.498 124.222 272.268 153.213 275.422 195.845C278.142 233.272 245.935 267.887 205.961 270.471C164.944 272.91 129.52 243.098 126.488 203.597C123.65 165.562 154.714 130.073 193.229 127.337" fill="white"/>
<path d="M201.547 232.17C221.257 232.359 236.553 217.997 236.671 199.113C236.75 194.746 235.929 190.408 234.258 186.349C232.587 182.289 230.098 178.589 226.934 175.463C223.771 172.336 219.996 169.845 215.828 168.132C211.66 166.42 207.181 165.52 202.65 165.486C198.067 165.379 193.509 166.159 189.244 167.78C184.979 169.401 181.095 171.829 177.82 174.921C174.546 178.014 171.948 181.707 170.18 185.784C168.412 189.861 167.51 194.238 167.527 198.657C167.443 203.019 168.26 207.354 169.931 211.409C171.602 215.464 174.093 219.159 177.258 222.277C180.424 225.396 184.202 227.877 188.372 229.575C192.542 231.273 197.02 232.155 201.547 232.17Z" fill="white"/>
</svg>
